<svg width="20" height="20" viewBox="0 0 20 20" fill="none" xmlns="http://www.w3.org/2000/svg">
<g clip-path="url(#clip0_4839_23962)">
<path fill-rule="evenodd" clip-rule="evenodd" d="M19.2515 9.84443C19.2523 9.18404 19.1925 8.52491 19.0729 7.875H9.82031V11.5981H15.1063C14.9966 12.1863 14.7664 12.7467 14.4296 13.2454C14.0928 13.7441 13.6563 14.1708 13.1466 14.4996V16.9152H16.3202C18.1772 15.2395 19.2487 12.7714 19.2487 9.84262L19.2515 9.84443Z" fill="#3E82F1"/>
<path fill-rule="evenodd" clip-rule="evenodd" d="M9.82388 19.2492C12.4757 19.2492 14.6991 18.3878 16.3238 16.918L13.1502 14.5025C12.2703 15.0801 11.1452 15.4219 9.82388 15.4219C7.26554 15.4219 5.10044 13.7281 4.32877 11.4531H1.04688V13.9476C1.86442 15.5418 3.11821 16.882 4.66815 17.8182C6.2181 18.7544 8.00316 19.2499 9.82388 19.2492Z" fill="#32A753"/>
<path fill-rule="evenodd" clip-rule="evenodd" d="M4.32645 11.4521C3.91564 10.2664 3.91564 8.98093 4.32645 7.79521V5.30078H1.04456C0.357681 6.64238 0 8.12264 0 9.62364C0 11.1246 0.357681 12.6049 1.04456 13.9465L4.32645 11.4521Z" fill="#F9BB00"/>
<path fill-rule="evenodd" clip-rule="evenodd" d="M9.82203 3.82733C11.2645 3.82733 12.5589 4.31334 13.5767 5.26722L16.3932 2.50622C14.6926 0.952981 12.4692 6.65858e-07 9.82387 6.65858e-07C8.00315 -0.000663001 6.2181 0.494798 4.66815 1.43103C3.11821 2.36726 1.86442 3.70739 1.04688 5.30168L4.32877 7.79611C5.10043 5.52111 7.26553 3.82733 9.82387 3.82733H9.82203Z" fill="#E74133"/>
</g>
<defs>
<clipPath id="clip0_4839_23962">
<rect width="19.25" height="19.25" fill="white"/>
</clipPath>
</defs>
</svg>
