<svg width="126" height="29" viewBox="0 0 126 29" fill="none" xmlns="http://www.w3.org/2000/svg">
<g clip-path="url(#clip0_4711_59080)">
<path d="M44.0579 20.8882L41.4271 22.4077H31.6973V6.53171H41.4271L44.0579 8.05127V20.8882ZM34.8725 9.25331V19.6861H40.8827V9.25331H34.8725ZM58.1853 21.0016L55.5545 22.5211H50.7236L48.0927 21.0016V12.4739L50.7236 10.9543H55.5545L58.1853 12.4739V21.0016ZM51.1999 13.6079V19.8676H55.0782V13.6079H51.1999ZM65.0978 13.7213V19.7542H70.7225V22.4077H64.6216L61.9907 20.8882V12.5873L64.6216 11.0677H70.7225V13.7213H65.0978ZM73.1652 13.7213V11.0677H75.2518V9.16259L78.359 7.37087V11.0677H80.8538V13.7213H78.359V19.7542H80.8538V22.4077H77.8827L75.2518 20.8882V13.7213H73.1652ZM87.3123 22.4077H84.2052V5.85131H87.3123V11.8842L88.9226 10.9543H91.8937L94.5246 12.4739V22.4077H91.4174V13.6079H87.3123V22.4077ZM105.355 13.7213H101.454V22.4077H98.3467V11.0677H100.91L101.454 11.9976L103.064 11.0677H105.355V13.7213ZM108.036 21.0016V11.0677H111.144V19.8676H115.022V11.0677H118.129V22.5211H115.566L115.022 21.5912L113.412 22.5211H110.667L108.036 21.0016Z" fill="#D8D8D8"/>
<rect x="5.67188" y="3.54346" width="18.4275" height="21.2625" rx="1.4175" fill="#262626"/>
<path d="M17.367 10.6313L19.8477 13.7321L17.367 16.8329" stroke="#FFC117" stroke-width="1.701"/>
<path d="M12.4064 10.6313L9.92578 13.7321L12.4064 16.8329" stroke="#FFC117" stroke-width="1.701"/>
</g>
<defs>
<clipPath id="clip0_4711_59080">
<rect width="126" height="28.35" fill="white"/>
</clipPath>
</defs>
</svg>
