<svg width="120" height="27" viewBox="0 0 120 27" fill="none" xmlns="http://www.w3.org/2000/svg">
<g clip-path="url(#clip0_12384_8075)">
<path d="M41.9596 20.7017L39.454 22.1489H30.1876V7.02892H39.454L41.9596 8.47613V20.7017ZM33.2116 9.62092V19.5569H38.9356V9.62092H33.2116ZM55.4142 20.8097L52.9086 22.2569H48.3078L45.8022 20.8097V12.6881L48.3078 11.2409H52.9086L55.4142 12.6881V20.8097ZM48.7614 13.7681V19.7297H52.455V13.7681H48.7614ZM61.9976 13.8761V19.6217H67.3544V22.1489H61.544L59.0384 20.7017V12.7961L61.544 11.3489H67.3544V13.8761H61.9976ZM69.6808 13.8761V11.3489H71.668V9.53452L74.6272 7.82812V11.3489H77.0032V13.8761H74.6272V19.6217H77.0032V22.1489H74.1736L71.668 20.7017V13.8761H69.6808ZM83.1542 22.1489H80.195V6.38093H83.1542V12.1265L84.6878 11.2409H87.5174L90.023 12.6881V22.1489H87.0638V13.7681H83.1542V22.1489ZM100.338 13.8761H96.6224V22.1489H93.6632V11.3489H96.104L96.6224 12.2345L98.156 11.3489H100.338V13.8761ZM102.891 20.8097V11.3489H105.851V19.7297H109.544V11.3489H112.504V22.2569H110.063L109.544 21.3713L108.011 22.2569H105.397L102.891 20.8097Z" fill="#525252"/>
<rect x="5.39844" y="3.37402" width="17.55" height="20.25" rx="1.35" fill="#262626"/>
<path d="M16.5359 10.124L18.8984 13.0771L16.5359 16.0303" stroke="#FFC117" stroke-width="1.62"/>
<path d="M11.8117 10.124L9.44922 13.0771L11.8117 16.0303" stroke="#FFC117" stroke-width="1.62"/>
</g>
<defs>
<clipPath id="clip0_12384_8075">
<rect width="120" height="27" fill="white"/>
</clipPath>
</defs>
</svg>
